# xmcd CD database file
#
# Track frame offsets:
#	150
#	2379
#	18295
#	35612
#	54939
#	67305
#	83470
#	97297
#	112964
#	126931
#	140549
#	153627
#	167319
#	178545
#	191486
#	202463
#	212920
#	229146
#
# Disc length: 3223 seconds
#
# Revision: 0
# Processed by: cddbd v1.5.2PL0 Copyright (c) Steve Scherf et al.
# Submitted via: jetAudio 7
#
DISCID=f80c9512
DTITLE=two sheds jackson - memory lane
DYEAR=1900
DGENRE=Misc
TTITLE0=852364 overture "to the good old days"
TTITLE1=dont wanna know
TTITLE2=is there anyone out there
TTITLE3=memory lane
TTITLE4=gimme
TTITLE5=gettin high
TTITLE6=my life
TTITLE7=join together
TTITLE8=if i ever lose this love
TTITLE9=irresistible
TTITLE10=eat drink and be merry 
TTITLE11=roses
TTITLE12=if you could read my mind
TTITLE13=get over it
TTITLE14=bananafish
TTITLE15=little lady
TTITLE16=coda
TTITLE17=anything you wanna be - acoustic
EXTD=
EXTT0=
EXTT1=
EXTT2=
EXTT3=
EXTT4=
EXTT5=
EXTT6=
EXTT7=
EXTT8=
EXTT9=
EXTT10=
EXTT11=
EXTT12=
EXTT13=
EXTT14=
EXTT15=
EXTT16=
EXTT17=
PLAYORDER=
